<svg xmlns="http://www.w3.org/2000/svg" width="42.968" height="42.968" viewBox="0 0 42.968 42.968">
  <g id="Triangle_Copy" data-name="Triangle Copy" transform="translate(-10.581 24.067) rotate(-45)" fill="none" stroke-miterlimit="10">
    <path d="M17.127,10.533a9,9,0,0,1,14.746,0l7.214,10.306A9,9,0,0,1,31.714,35H17.286A9,9,0,0,1,9.913,20.839Z" stroke="none"/>
    <path d="M 24.5 10.69413566589355 C 22.84558486938477 10.69413566589355 21.35258483886719 11.47146415710449 20.40384292602539 12.82682037353516 L 13.18974304199219 23.1326789855957 C 12.62540054321289 23.93889236450195 12.31771469116211 24.81960678100586 12.27524185180664 25.75035095214844 C 12.23535537719727 26.62422180175781 12.43445587158203 27.50900650024414 12.85100173950195 28.30904960632324 C 13.26755523681641 29.10909271240234 13.87821578979492 29.77959251403809 14.61700057983398 30.24805068969727 C 15.40384292602539 30.74700546264648 16.30179977416992 30.99999237060547 17.2859001159668 30.99999237060547 L 31.7140998840332 30.99999237060547 C 32.69820022583008 30.99999237060547 33.59615707397461 30.74700546264648 34.38299942016602 30.24805068969727 C 35.12178802490234 29.77959251403809 35.73244476318359 29.10909271240234 36.14900207519531 28.30904960632324 C 36.56554412841797 27.50900650024414 36.76464080810547 26.62422180175781 36.72475814819336 25.75035095214844 C 36.68228530883789 24.81960678100586 36.37459945678711 23.93889236450195 35.81025695800781 23.1326789855957 L 28.59615707397461 12.82682037353516 C 27.64741516113281 11.47146415710449 26.15441513061523 10.69413566589355 24.5 10.69413566589355 M 24.5 6.694133758544922 C 27.29081344604492 6.694133758544922 30.08162879943848 7.973751068115234 31.87308502197266 10.53297805786133 L 39.08718490600586 20.83883476257324 C 43.26268768310547 26.80383491516113 38.99531555175781 34.99999237060547 31.7140998840332 34.99999237060547 L 17.2859001159668 34.99999237060547 C 10.00468444824219 34.99999237060547 5.737316131591797 26.80383491516113 9.912815093994141 20.83883476257324 L 17.12691497802734 10.53297805786133 C 18.91837120056152 7.973751068115234 21.70918655395508 6.694133758544922 24.5 6.694133758544922 Z" stroke="none" fill="#ff2a58"/>
  </g>
</svg>
