<svg xmlns="http://www.w3.org/2000/svg" width="129" height="219" viewBox="0 0 129 219">
  <path id="Combined_Shape" data-name="Combined Shape" d="M120,214.5a4.5,4.5,0,1,1,4.5,4.5A4.5,4.5,0,0,1,120,214.5Zm-30,0a4.5,4.5,0,1,1,4.5,4.5A4.5,4.5,0,0,1,90,214.5Zm-30,0a4.5,4.5,0,1,1,4.5,4.5A4.5,4.5,0,0,1,60,214.5Zm-30,0a4.5,4.5,0,1,1,4.5,4.5A4.5,4.5,0,0,1,30,214.5Zm-30,0A4.5,4.5,0,1,1,4.5,219,4.5,4.5,0,0,1,0,214.5Zm120-30a4.5,4.5,0,1,1,4.5,4.5A4.5,4.5,0,0,1,120,184.5Zm-30,0a4.5,4.5,0,1,1,4.5,4.5A4.5,4.5,0,0,1,90,184.5Zm-30,0a4.5,4.5,0,1,1,4.5,4.5A4.5,4.5,0,0,1,60,184.5Zm-30,0a4.5,4.5,0,1,1,4.5,4.5A4.5,4.5,0,0,1,30,184.5Zm-30,0A4.5,4.5,0,1,1,4.5,189,4.5,4.5,0,0,1,0,184.5Zm120-30a4.5,4.5,0,1,1,4.5,4.5A4.5,4.5,0,0,1,120,154.5Zm-30,0a4.5,4.5,0,1,1,4.5,4.5A4.5,4.5,0,0,1,90,154.5Zm-30,0a4.5,4.5,0,1,1,4.5,4.5A4.5,4.5,0,0,1,60,154.5Zm-30,0a4.5,4.5,0,1,1,4.5,4.5A4.5,4.5,0,0,1,30,154.5Zm-30,0A4.5,4.5,0,1,1,4.5,159,4.5,4.5,0,0,1,0,154.5Zm120-30a4.5,4.5,0,1,1,4.5,4.5A4.5,4.5,0,0,1,120,124.5Zm-30,0a4.5,4.5,0,1,1,4.5,4.5A4.5,4.5,0,0,1,90,124.5Zm-30,0a4.5,4.5,0,1,1,4.5,4.5A4.5,4.5,0,0,1,60,124.5Zm-30,0a4.5,4.5,0,1,1,4.5,4.5A4.5,4.5,0,0,1,30,124.5Zm-30,0A4.5,4.5,0,1,1,4.5,129,4.5,4.5,0,0,1,0,124.5Zm120-30a4.5,4.5,0,1,1,4.5,4.5A4.5,4.5,0,0,1,120,94.5Zm-30,0A4.5,4.5,0,1,1,94.5,99,4.5,4.5,0,0,1,90,94.5Zm-30,0A4.5,4.5,0,1,1,64.5,99,4.5,4.5,0,0,1,60,94.5Zm-30,0A4.5,4.5,0,1,1,34.5,99,4.5,4.5,0,0,1,30,94.5Zm-30,0A4.5,4.5,0,1,1,4.5,99,4.5,4.5,0,0,1,0,94.5Zm120-30a4.5,4.5,0,1,1,4.5,4.5A4.5,4.5,0,0,1,120,64.5Zm-30,0A4.5,4.5,0,1,1,94.5,69,4.5,4.5,0,0,1,90,64.5Zm-30,0A4.5,4.5,0,1,1,64.5,69,4.5,4.5,0,0,1,60,64.5Zm-30,0A4.5,4.5,0,1,1,34.5,69,4.5,4.5,0,0,1,30,64.5Zm-30,0A4.5,4.5,0,1,1,4.5,69,4.5,4.5,0,0,1,0,64.5Zm120-30a4.5,4.5,0,1,1,4.5,4.5A4.5,4.5,0,0,1,120,34.5Zm-30,0A4.5,4.5,0,1,1,94.5,39,4.5,4.5,0,0,1,90,34.5Zm-30,0A4.5,4.5,0,1,1,64.5,39,4.5,4.5,0,0,1,60,34.5Zm-30,0A4.5,4.5,0,1,1,34.5,39,4.5,4.5,0,0,1,30,34.5Zm-30,0A4.5,4.5,0,1,1,4.5,39,4.5,4.5,0,0,1,0,34.5Zm120-30A4.5,4.5,0,1,1,124.5,9,4.5,4.5,0,0,1,120,4.5Zm-30,0A4.5,4.5,0,1,1,94.5,9,4.5,4.5,0,0,1,90,4.5Zm-30,0A4.5,4.5,0,1,1,64.5,9,4.5,4.5,0,0,1,60,4.5Zm-30,0A4.5,4.5,0,1,1,34.5,9,4.5,4.5,0,0,1,30,4.5ZM0,4.5A4.5,4.5,0,1,1,4.5,9,4.5,4.5,0,0,1,0,4.5Z" fill="#ffd602"/>
</svg>
